Genre:Comedy | Drama | Romance 
Language:English
IMDb:http://www.imdb.com/title/tt1336617/
Source:DVD


General
Complete name :Cyrus.2010.LIMITED.DvDRip.H264.Feel-Free
Format : MPEG-4
Format profile : Base Media
Codec ID : isom
File size : 714 MiB
Duration : 1h 30mn
Overall bit rate : 1 097 Kbps
Video #2
Codec ID : avc1
Codec ID/Info : Advanced Video Coding
Duration : 1h 30mn
Bit rate mode : Variable
Bit rate : 942 Kbps
Width : 640 pixels
Height : 352 pixels
Display aspect ratio : 16:9
Frame rate mode : Constant
Frame rate : 29.970 fps
Original frame rate : 29.000 fps
Resolution : 24 bits
Colorimetry : 4:2:0
Scan type : Progressive
Bits/(Pixel*Frame) : 0.140
Stream size : 613 MiB (86%)
Writing library : δåu
Audio #1
ID : 1
Format : AAC
Format/Info : Advanced Audio Codec
Format version : Version 4
Format profile : LC
Format settings, SBR : No
Codec ID : 40
Duration : 1h 30mn
Bit rate mode : Constant
Bit rate : 147 Kbps
Channel(s) : 6 channels
Channel positions : Front: L C R, Rear: L R, LFE
Sampling rate : 48.0 KHz
Resolution : 16 bits
Stream size : 95.8 MiB (13%)


Plot:
A recently divorced guy meets the woman of his dreams. Then he meets her son.



================================== 
http://thepiratebay.org/user/hiest
==================================



Screenshots:
 
http://rapidhdd.com/images/997615vlcsnap-2010-12-03-02h24m22s0.png
 
http://www.rapidhdd.com/images/763942vlcsnap-2010-12-03-02h24m34s115.png
 
http://www.rapidhdd.com/images/687366vlcsnap-2010-12-03-02h24m48s4.png
 
http://www.rapidhdd.com/images/777481vlcsnap-2010-12-03-02h25m44s53.png